<?xml version="1.0" encoding="UTF-8" standalone="no"?>
<svg
   xmlns:dc="http://purl.org/dc/elements/1.1/"
   xmlns:cc="http://creativecommons.org/ns#"
   xmlns:rdf="http://www.w3.org/1999/02/22-rdf-syntax-ns#"
   xmlns:svg="http://www.w3.org/2000/svg"
   xmlns="http://www.w3.org/2000/svg"
   xmlns:sodipodi="http://sodipodi.sourceforge.net/DTD/sodipodi-0.dtd"
   xmlns:inkscape="http://www.inkscape.org/namespaces/inkscape"
   viewBox="0 0 718.23999 340.15994"
   height="340.15994"
   width="718.23999"
   xml:space="preserve"
   id="svg2"
   version="1.1"
   sodipodi:docname="Logo_REST_full.svg"
   inkscape:version="0.92.4 (5da689c313, 2019-01-14)"><sodipodi:namedview
     pagecolor="#ffffff"
     bordercolor="#666666"
     borderopacity="1"
     objecttolerance="10"
     gridtolerance="10"
     guidetolerance="10"
     inkscape:pageopacity="0"
     inkscape:pageshadow="2"
     inkscape:window-width="1920"
     inkscape:window-height="1017"
     id="namedview210"
     showgrid="false"
     fit-margin-top="0"
     fit-margin-left="0"
     fit-margin-right="0"
     fit-margin-bottom="0"
     inkscape:zoom="1.581644"
     inkscape:cx="303.42289"
     inkscape:cy="184.39999"
     inkscape:window-x="-8"
     inkscape:window-y="-8"
     inkscape:window-maximized="1"
     inkscape:current-layer="svg2" /><metadata
     id="metadata8"><rdf:RDF><cc:Work
         rdf:about=""><dc:format>image/svg+xml</dc:format><dc:type
           rdf:resource="http://purl.org/dc/dcmitype/StillImage" /><dc:title></dc:title></cc:Work></rdf:RDF></metadata><defs
     id="defs6"><clipPath
       id="clipPath18"
       clipPathUnits="userSpaceOnUse"><path
         style="clip-rule:evenodd"
         id="path16"
         d="M 0,6.1035e-5 H 538.68 V 255.12006 H 0 Z"
         inkscape:connector-curvature="0" /></clipPath><clipPath
       id="clipPath28"
       clipPathUnits="userSpaceOnUse"><path
         style="clip-rule:evenodd"
         id="path26"
         d="M -1.5259e-5,255.12 H 538.68 V 4.5776e-5 L -1.1444e-5,1.5259e-5"
         inkscape:connector-curvature="0" /></clipPath><clipPath
       id="clipPath38"
       clipPathUnits="userSpaceOnUse"><path
         style="clip-rule:evenodd"
         id="path36"
         d="M -3.8147e-5,255.12 H 538.68 V 3.0518e-5 L -3.0518e-5,0"
         inkscape:connector-curvature="0" /></clipPath><clipPath
       id="clipPath48"
       clipPathUnits="userSpaceOnUse"><path
         style="clip-rule:evenodd"
         id="path46"
         d="M -2.2888e-5,255.12 H 538.68 V 6.1035e-5 H -3.0518e-5"
         inkscape:connector-curvature="0" /></clipPath><clipPath
       id="clipPath58"
       clipPathUnits="userSpaceOnUse"><path
         style="clip-rule:evenodd"
         id="path56"
         d="M -7.629e-6,255.12 H 538.68 V -1.5259e-5 L -7.629e-6,0"
         inkscape:connector-curvature="0" /></clipPath><clipPath
       id="clipPath68"
       clipPathUnits="userSpaceOnUse"><path
         style="clip-rule:evenodd"
         id="path66"
         d="M -3.0518e-5,255.12 H 538.68 V 4.5776e-5 L -3.0518e-5,6.1035e-5"
         inkscape:connector-curvature="0" /></clipPath><clipPath
       id="clipPath78"
       clipPathUnits="userSpaceOnUse"><path
         style="clip-rule:evenodd"
         id="path76"
         d="M -4.5776e-5,255.12 H 538.68 V -1.5259e-5 H -3.0518e-5"
         inkscape:connector-curvature="0" /></clipPath><clipPath
       id="clipPath88"
       clipPathUnits="userSpaceOnUse"><path
         style="clip-rule:evenodd"
         id="path86"
         d="M -1.5259e-5,255.12 H 538.68 V 6.1035e-5 H -2.2888e-5"
         inkscape:connector-curvature="0" /></clipPath><clipPath
       id="clipPath98"
       clipPathUnits="userSpaceOnUse"><path
         style="clip-rule:evenodd"
         id="path96"
         d="M -3.0518e-5,255.12 H 538.68 V -6.1035e-5 L -1.5259e-5,-4.5776e-5"
         inkscape:connector-curvature="0" /></clipPath><clipPath
       id="clipPath108"
       clipPathUnits="userSpaceOnUse"><path
         style="clip-rule:evenodd"
         id="path106"
         d="M 0,255.12 H 538.68 V 4.5776e-5 H 0"
         inkscape:connector-curvature="0" /></clipPath><clipPath
       id="clipPath118"
       clipPathUnits="userSpaceOnUse"><path
         style="clip-rule:evenodd"
         id="path116"
         d="M -1.5259e-5,255.12 H 538.68 V -1.5259e-5 L -1.5259e-5,0"
         inkscape:connector-curvature="0" /></clipPath><clipPath
       id="clipPath128"
       clipPathUnits="userSpaceOnUse"><path
         style="clip-rule:evenodd"
         id="path126"
         d="M 7.629e-6,255.12 H 538.68 V 1.0681e-4 L 1.5259e-5,9.1553e-5"
         inkscape:connector-curvature="0" /></clipPath><clipPath
       id="clipPath138"
       clipPathUnits="userSpaceOnUse"><path
         style="clip-rule:evenodd"
         id="path136"
         d="M -3.0518e-5,255.12 H 538.68 V -4.5776e-5 L -4.5776e-5,-3.0518e-5"
         inkscape:connector-curvature="0" /></clipPath><clipPath
       id="clipPath148"
       clipPathUnits="userSpaceOnUse"><path
         style="clip-rule:evenodd"
         id="path146"
         d="M -2.2888e-5,255.12 H 538.68 V 4.5776e-5 L -3.0518e-5,3.0518e-5"
         inkscape:connector-curvature="0" /></clipPath><clipPath
       id="clipPath158"
       clipPathUnits="userSpaceOnUse"><path
         style="clip-rule:evenodd"
         id="path156"
         d="M -2.2888e-5,255.12 H 538.68 V 4.5776e-5 L -3.0518e-5,3.0518e-5"
         inkscape:connector-curvature="0" /></clipPath><clipPath
       id="clipPath168"
       clipPathUnits="userSpaceOnUse"><path
         style="clip-rule:evenodd"
         id="path166"
         d="M -1.5259e-5,255.12 H 538.68 V 4.5776e-5 L -3.0518e-5,3.0518e-5"
         inkscape:connector-curvature="0" /></clipPath><clipPath
       id="clipPath178"
       clipPathUnits="userSpaceOnUse"><path
         style="clip-rule:evenodd"
         id="path176"
         d="M -1.5259e-5,255.12 H 538.68 V 4.5776e-5 L -3.0518e-5,3.0518e-5"
         inkscape:connector-curvature="0" /></clipPath><clipPath
       id="clipPath188"
       clipPathUnits="userSpaceOnUse"><path
         style="clip-rule:evenodd"
         id="path186"
         d="M -3.815e-6,255.12 H 538.68 V 0 H -3.815e-6"
         inkscape:connector-curvature="0" /></clipPath><clipPath
       id="clipPath198"
       clipPathUnits="userSpaceOnUse"><path
         style="clip-rule:evenodd"
         id="path196"
         d="M 0,255.12 H 538.68 V 1.0681e-4 L -1.1444e-5,6.1035e-5"
         inkscape:connector-curvature="0" /></clipPath><clipPath
       id="clipPath208"
       clipPathUnits="userSpaceOnUse"><path
         style="clip-rule:evenodd"
         id="path206"
         d="M -3.0518e-5,255.12 H 538.68 V 3.0518e-5 L -4.5776e-5,0"
         inkscape:connector-curvature="0" /></clipPath><clipPath
       id="clipPath218"
       clipPathUnits="userSpaceOnUse"><path
         style="clip-rule:evenodd"
         id="path216"
         d="M -3.0518e-5,255.12 H 538.68 V 3.0518e-5 L -4.5776e-5,0"
         inkscape:connector-curvature="0" /></clipPath><clipPath
       id="clipPath228"
       clipPathUnits="userSpaceOnUse"><path
         style="clip-rule:evenodd"
         id="path226"
         d="M 8.027e-6,0 H 538.68001 V 255.12 H 8.027e-6 Z"
         inkscape:connector-curvature="0" /></clipPath><clipPath
       id="clipPath240"
       clipPathUnits="userSpaceOnUse"><path
         style="clip-rule:evenodd"
         id="path238"
         d="M -1.5259e-5,255.12 H 538.68 V 7.6294e-5 L -1.5259e-5,6.1035e-5"
         inkscape:connector-curvature="0" /></clipPath><clipPath
       id="clipPath250"
       clipPathUnits="userSpaceOnUse"><path
         style="clip-rule:evenodd"
         id="path248"
         d="M -3.815e-6,255.12 H 538.68 V 9.1553e-5 L -1.5259e-5,6.1035e-5"
         inkscape:connector-curvature="0" /></clipPath><clipPath
       id="clipPath260"
       clipPathUnits="userSpaceOnUse"><path
         style="clip-rule:evenodd"
         id="path258"
         d="M -3.815e-6,255.12 H 538.68 V 9.1553e-5 L -1.5259e-5,6.1035e-5"
         inkscape:connector-curvature="0" /></clipPath><clipPath
       id="clipPath270"
       clipPathUnits="userSpaceOnUse"><path
         style="clip-rule:evenodd"
         id="path268"
         d="M 8.027e-6,0 H 538.68001 V 255.12 H 8.027e-6 Z"
         inkscape:connector-curvature="0" /></clipPath><clipPath
       id="clipPath282"
       clipPathUnits="userSpaceOnUse"><path
         style="clip-rule:evenodd"
         id="path280"
         d="M -3.0518e-5,255.12 H 538.68 V 4.5776e-5 L -4.5776e-5,3.0518e-5"
         inkscape:connector-curvature="0" /></clipPath><clipPath
       id="clipPath292"
       clipPathUnits="userSpaceOnUse"><path
         style="clip-rule:evenodd"
         id="path290"
         d="M -3.0518e-5,255.12 H 538.68 V 4.5776e-5 L -4.5776e-5,3.0518e-5"
         inkscape:connector-curvature="0" /></clipPath><clipPath
       id="clipPath302"
       clipPathUnits="userSpaceOnUse"><path
         style="clip-rule:evenodd"
         id="path300"
         d="M 8.027e-6,0 H 538.68001 V 255.12 H 8.027e-6 Z"
         inkscape:connector-curvature="0" /></clipPath><clipPath
       id="clipPath314"
       clipPathUnits="userSpaceOnUse"><path
         style="clip-rule:evenodd"
         id="path312"
         d="M -4.5776e-5,255.12 H 538.68 V 6.1035e-5 L -6.1035e-5,1.5259e-5"
         inkscape:connector-curvature="0" /></clipPath><clipPath
       id="clipPath324"
       clipPathUnits="userSpaceOnUse"><path
         style="clip-rule:evenodd"
         id="path322"
         d="M -4.5776e-5,255.12 H 538.68 V 6.1035e-5 L -6.1035e-5,1.5259e-5"
         inkscape:connector-curvature="0" /></clipPath><clipPath
       id="clipPath334"
       clipPathUnits="userSpaceOnUse"><path
         style="clip-rule:evenodd"
         id="path332"
         d="M -1.5259e-5,255.12 H 538.68 V 3.0518e-5 H -2.2888e-5"
         inkscape:connector-curvature="0" /></clipPath><clipPath
       id="clipPath344"
       clipPathUnits="userSpaceOnUse"><path
         style="clip-rule:evenodd"
         id="path342"
         d="M -1.5259e-5,255.12 H 538.68 V 3.0518e-5 H -2.2888e-5"
         inkscape:connector-curvature="0" /></clipPath><clipPath
       id="clipPath354"
       clipPathUnits="userSpaceOnUse"><path
         style="clip-rule:evenodd"
         id="path352"
         d="M 8.027e-6,0 H 538.68001 V 255.12 H 8.027e-6 Z"
         inkscape:connector-curvature="0" /></clipPath><clipPath
       id="clipPath366"
       clipPathUnits="userSpaceOnUse"><path
         style="clip-rule:evenodd"
         id="path364"
         d="M 8.027e-6,0 H 538.68001 V 255.12 H 8.027e-6 Z"
         inkscape:connector-curvature="0" /></clipPath><clipPath
       id="clipPath378"
       clipPathUnits="userSpaceOnUse"><path
         style="clip-rule:evenodd"
         id="path376"
         d="M 8.027e-6,0 H 538.68001 V 255.12 H 8.027e-6 Z"
         inkscape:connector-curvature="0" /></clipPath><clipPath
       id="clipPath390"
       clipPathUnits="userSpaceOnUse"><path
         style="clip-rule:evenodd"
         id="path388"
         d="M 8.027e-6,0 H 538.68001 V 255.12 H 8.027e-6 Z"
         inkscape:connector-curvature="0" /></clipPath><clipPath
       id="clipPath402"
       clipPathUnits="userSpaceOnUse"><path
         style="clip-rule:evenodd"
         id="path400"
         d="M 8.027e-6,0 H 538.68001 V 255.12 H 8.027e-6 Z"
         inkscape:connector-curvature="0" /></clipPath><clipPath
       id="clipPath414"
       clipPathUnits="userSpaceOnUse"><path
         style="clip-rule:evenodd"
         id="path412"
         d="M 8.027e-6,0 H 538.68001 V 255.12 H 8.027e-6 Z"
         inkscape:connector-curvature="0" /></clipPath></defs><g
     transform="matrix(1.3333333,0,0,-1.3333333,0,340.16002)"
     id="g10"><g
       id="g12"><g
         clip-path="url(#clipPath18)"
         id="g14"><path
           id="path20"
           style="fill:#ffffff;fill-opacity:1;fill-rule:evenodd;stroke:none"
           d="M 0,1.5259e-5 H 538.68 V 255.12002 H 0 Z"
           inkscape:connector-curvature="0" /></g></g><g
       id="g22"><g
         clip-path="url(#clipPath28)"
         id="g24"><path
           id="path30"
           style="fill:#dae3f3;fill-opacity:1;fill-rule:evenodd;stroke:none"
           d="M 100.08,75.89 C 64.105,86.394 42.433,120.57 51.674,152.21 60.915,183.86 97.57,201 133.54,190.5 169.52,180 191.19,145.82 181.95,114.18 172.71,82.527 136.06,65.386 100.08,75.89 Z"
           inkscape:connector-curvature="0" /></g></g><g
       id="g32"><g
         clip-path="url(#clipPath38)"
         id="g34"><path
           id="path40"
           style="fill:#8faadc;fill-opacity:1;fill-rule:evenodd;stroke:none"
           d="m 117.32,61.449 c -12.98,3.789 -14.7,36.99 -3.85,74.161 10.85,37.16 30.17,64.22 43.15,60.43 12.97,-3.79 14.7,-36.99 3.84,-74.16 C 149.61,84.718 130.29,57.66 117.32,61.449 Z"
           inkscape:connector-curvature="0" /></g></g><g
       id="g42"><g
         clip-path="url(#clipPath48)"
         id="g44"><path
           id="path50"
           style="fill:none;stroke:#7f7f7f;stroke-width:4.5;stroke-linecap:round;stroke-linejoin:miter;stroke-miterlimit:10;stroke-dasharray:none;stroke-opacity:1"
           d="m 137.92,211.8 c 24.3,-1.23 42.47,-32.22 40.59,-69.22"
           inkscape:connector-curvature="0" /></g></g><g
       id="g52"><g
         clip-path="url(#clipPath58)"
         id="g54"><path
           id="path60"
           style="fill:none;stroke:#7f7f7f;stroke-width:4.5;stroke-linecap:round;stroke-linejoin:miter;stroke-miterlimit:10;stroke-dasharray:none;stroke-opacity:1"
           d="m 144.48,71.778 c 18.87,0.045 34.09,31.972 33.99,71.322"
           inkscape:connector-curvature="0" /></g></g><g
       id="g62"><g
         clip-path="url(#clipPath68)"
         id="g64"><path
           id="path70"
           style="fill:none;stroke:#7f7f7f;stroke-width:4.5;stroke-linecap:round;stroke-linejoin:miter;stroke-miterlimit:10;stroke-dasharray:none;stroke-opacity:1"
           d="M 137.98,159.34 C 125.16,160 113.94,144.51 112.93,124.74"
           inkscape:connector-curvature="0" /></g></g><g
       id="g72"><g
         clip-path="url(#clipPath78)"
         id="g74"><path
           id="path80"
           style="fill:none;stroke:#7f7f7f;stroke-width:4.5;stroke-linecap:round;stroke-linejoin:miter;stroke-miterlimit:10;stroke-dasharray:none;stroke-opacity:1"
           d="m 145.32,71.037 c -19.87,1.354 -34.42,25.318 -32.5,53.523"
           inkscape:connector-curvature="0" /></g></g><g
       id="g82"><g
         clip-path="url(#clipPath88)"
         id="g84"><path
           id="path90"
           style="fill:none;stroke:#7f7f7f;stroke-width:4.5;stroke-linecap:round;stroke-linejoin:miter;stroke-miterlimit:10;stroke-dasharray:none;stroke-opacity:1"
           d="m 137.2,159.44 c 9.69,-0.49 16.8,-15.6 15.88,-33.75"
           inkscape:connector-curvature="0" /></g></g><g
       id="g92"><g
         clip-path="url(#clipPath98)"
         id="g94"><path
           id="path100"
           style="fill:none;stroke:#7f7f7f;stroke-width:4.5;stroke-linecap:round;stroke-linejoin:miter;stroke-miterlimit:10;stroke-dasharray:none;stroke-opacity:1"
           d="M 138.12,40.629 C 113.45,42.736 95.997,74.363 99.148,111.27"
           inkscape:connector-curvature="0" /></g></g><g
       id="g102"><g
         clip-path="url(#clipPath108)"
         id="g104"><path
           id="path110"
           style="fill:none;stroke:#7f7f7f;stroke-width:4.5;stroke-linecap:round;stroke-linejoin:miter;stroke-miterlimit:10;stroke-dasharray:none;stroke-opacity:1"
           d="M 136.28,181.29 C 117.08,181.9 100.49,150.52 99.235,111.2"
           inkscape:connector-curvature="0" /></g></g><g
       id="g112"><g
         clip-path="url(#clipPath118)"
         id="g114"><path
           id="path120"
           style="fill:none;stroke:#7f7f7f;stroke-width:4.5;stroke-linecap:round;stroke-linejoin:miter;stroke-miterlimit:10;stroke-dasharray:none;stroke-opacity:1"
           d="m 139.7,93.153 c 13.02,-1.119 24.95,13.957 26.64,33.677"
           inkscape:connector-curvature="0" /></g></g><g
       id="g122"><g
         clip-path="url(#clipPath128)"
         id="g124"><path
           id="path130"
           style="fill:none;stroke:#7f7f7f;stroke-width:4.5;stroke-linecap:round;stroke-linejoin:miter;stroke-miterlimit:10;stroke-dasharray:none;stroke-opacity:1"
           d="m 135.21,181.75 c 20.16,-2.07 34.17,-26.55 31.28,-54.67"
           inkscape:connector-curvature="0" /></g></g><g
       id="g132"><g
         clip-path="url(#clipPath138)"
         id="g134"><path
           id="path140"
           style="fill:none;stroke:#7f7f7f;stroke-width:4.5;stroke-linecap:round;stroke-linejoin:miter;stroke-miterlimit:10;stroke-dasharray:none;stroke-opacity:1"
           d="m 140.5,93.007 c -9.84,0.84 -16.57,16.203 -15.02,34.303"
           inkscape:connector-curvature="0" /></g></g><g
       id="g142"><g
         clip-path="url(#clipPath148)"
         id="g144"><path
           id="path150"
           style="fill:#92d050;fill-opacity:1;fill-rule:evenodd;stroke:none"
           d="m 107.96,57.386 c -1.65,1.046 -2.14,3.235 -1.1,4.889 1.05,1.654 3.24,2.147 4.89,1.1 1.66,-1.046 2.15,-3.234 1.1,-4.888 -1.04,-1.654 -3.23,-2.147 -4.89,-1.101 z"
           inkscape:connector-curvature="0" /></g></g><g
       id="g152"><g
         clip-path="url(#clipPath158)"
         id="g154"><path
           id="path160"
           style="fill:none;stroke:#000000;stroke-width:2.25;stroke-linecap:butt;stroke-linejoin:miter;stroke-miterlimit:10;stroke-dasharray:none;stroke-opacity:1"
           d="m 107.96,57.386 c -1.65,1.046 -2.14,3.235 -1.1,4.889 1.05,1.654 3.24,2.147 4.89,1.1 1.66,-1.046 2.15,-3.234 1.1,-4.888 -1.04,-1.654 -3.23,-2.147 -4.89,-1.101 z"
           inkscape:connector-curvature="0" /></g></g><g
       id="g162"><g
         clip-path="url(#clipPath168)"
         id="g164"><path
           id="path170"
           style="fill:#92d050;fill-opacity:1;fill-rule:evenodd;stroke:none"
           d="m 133.11,178.85 c -1.66,1.05 -2.15,3.24 -1.1,4.89 1.04,1.66 3.23,2.15 4.89,1.1 1.65,-1.04 2.14,-3.23 1.1,-4.89 -1.05,-1.65 -3.24,-2.14 -4.89,-1.1 z"
           inkscape:connector-curvature="0" /></g></g><g
       id="g172"><g
         clip-path="url(#clipPath178)"
         id="g174"><path
           id="path180"
           style="fill:none;stroke:#000000;stroke-width:2.25;stroke-linecap:butt;stroke-linejoin:miter;stroke-miterlimit:10;stroke-dasharray:none;stroke-opacity:1"
           d="m 133.11,178.85 c -1.66,1.05 -2.15,3.24 -1.1,4.89 1.04,1.66 3.23,2.15 4.89,1.1 1.65,-1.04 2.14,-3.23 1.1,-4.89 -1.05,-1.65 -3.24,-2.14 -4.89,-1.1 z"
           inkscape:connector-curvature="0" /></g></g><g
       id="g182"><g
         clip-path="url(#clipPath188)"
         id="g184"><path
           id="path190"
           style="fill:none;stroke:#2f5597;stroke-width:4.5;stroke-linecap:round;stroke-linejoin:miter;stroke-miterlimit:10;stroke-dasharray:none;stroke-opacity:1"
           d="M 50.44,135.41 30.615,167.17"
           inkscape:connector-curvature="0" /></g></g><g
       id="g192"><g
         clip-path="url(#clipPath198)"
         id="g194"><path
           id="path200"
           style="fill:none;stroke:#2f5597;stroke-width:4.5;stroke-linecap:round;stroke-linejoin:miter;stroke-miterlimit:10;stroke-dasharray:none;stroke-opacity:1"
           d="M 56.125,119.86 34.592,75.8"
           inkscape:connector-curvature="0" /></g></g><g
       id="g202"><g
         clip-path="url(#clipPath208)"
         id="g204"><path
           id="path210"
           style="fill:#f89284;fill-opacity:1;fill-rule:evenodd;stroke:none"
           d="m 171.16,109.01 c -5.98,3.78 -7.7,11.8 -3.83,17.91 3.86,6.11 11.84,8 17.83,4.21 5.98,-3.78 7.7,-11.81 3.84,-17.91 -3.87,-6.11 -11.85,-8 -17.84,-4.21 z"
           inkscape:connector-curvature="0" /></g></g><g
       id="g212"><g
         clip-path="url(#clipPath218)"
         id="g214"><path
           id="path220"
           style="fill:none;stroke:#000000;stroke-width:2.25;stroke-linecap:butt;stroke-linejoin:miter;stroke-miterlimit:10;stroke-dasharray:none;stroke-opacity:1"
           d="m 171.16,109.01 c -5.98,3.78 -7.7,11.8 -3.83,17.91 3.86,6.11 11.84,8 17.83,4.21 5.98,-3.78 7.7,-11.81 3.84,-17.91 -3.87,-6.11 -11.85,-8 -17.84,-4.21 z"
           inkscape:connector-curvature="0" /></g></g><g
       id="g222"><g
         clip-path="url(#clipPath228)"
         id="g224"><text
   id="text232"
   style="font-variant:normal;font-weight:bold;font-size:24.02400017px;font-family:TrebuchetMS;-inkscape-font-specification:TrebuchetMS-Bold;writing-mode:lr-tb;fill:#000000;fill-opacity:1;fill-rule:nonzero;stroke:none"
   transform="matrix(1,0,0,-1,172.63,110.88)"><tspan
     id="tspan230"
     y="0"
     x="0">T</tspan></text>

</g></g><g
       id="g234"><g
         clip-path="url(#clipPath240)"
         id="g236"><path
           id="path242"
           style="fill:none;stroke:#2f5597;stroke-width:4.5;stroke-linecap:butt;stroke-linejoin:miter;stroke-miterlimit:10;stroke-dasharray:none;stroke-opacity:1"
           d="m 67.13,131.98 c 0.98,-0.16 1.96,-0.31 2.744,-1.2 0.783,-0.89 1.272,-2.82 1.957,-4.12 0.685,-1.31 1.336,-2.81 2.15,-3.71 0.814,-0.91 1.815,-1.71 2.734,-1.7 0.92,0 2.026,0.82 2.784,1.74 0.757,0.92 1.203,2.53 1.76,3.76 0.558,1.24 0.925,2.67 1.584,3.63 0.658,0.96 1.564,1.8 2.366,2.14 0.802,0.35 1.681,0.47 2.444,-0.07 0.764,-0.54 1.484,-2.05 2.137,-3.17 0.654,-1.12 1.303,-2.65 1.785,-3.54 0.482,-0.89 0.713,-1.24 1.107,-1.78 0.394,-0.55 0.793,-1.11 1.258,-1.47 0.465,-0.36 0.977,-0.62 1.532,-0.69 0.556,-0.06 1.249,-0.03 1.802,0.32 0.553,0.35 1.088,1.12 1.515,1.81 0.428,0.69 0.661,1.44 1.05,2.34 0.391,0.89 0.871,2.15 1.281,3.02 0.41,0.87 0.72,1.64 1.17,2.21 0.44,0.57 1.02,0.95 1.48,1.21 0.46,0.26 0.75,0.41 1.28,0.35 0.54,-0.06 1.41,-0.36 1.92,-0.72 0.51,-0.37 0.8,-0.91 1.17,-1.47 0.37,-0.56 0.7,-1.23 1.04,-1.88 0.34,-0.65 0.64,-1.27 1,-2.01 0.36,-0.74 0.7,-1.78 1.15,-2.42 0.44,-0.64 1.06,-1.07 1.5,-1.42 0.44,-0.34 0.7,-0.55 1.12,-0.65 0.43,-0.1 0.9,-0.14 1.43,0.04 0.53,0.18 1.27,0.56 1.74,1.04 0.47,0.47 0.76,1.16 1.08,1.79 0.32,0.64 0.53,1.35 0.83,2.02 0.31,0.67 0.67,1.33 0.99,2.02 0.33,0.69 0.57,1.5 0.95,2.11 0.37,0.6 0.88,1.19 1.29,1.53 0.41,0.33 0.76,0.39 1.17,0.48 0.41,0.09 0.84,0.13 1.29,0.03 0.44,-0.1 0.94,-0.24 1.39,-0.64 0.46,-0.41 0.8,-0.87 1.33,-1.78 0.54,-0.92 1.4,-2.79 1.86,-3.72 0.46,-0.94 0.56,-1.33 0.91,-1.88 0.35,-0.55 0.76,-1 1.19,-1.43 0.43,-0.42 1.03,-0.94 1.38,-1.14 0.35,-0.2 0.71,-0.07 0.71,-0.07 v 0"
           inkscape:connector-curvature="0" /></g></g><g
       id="g244"><g
         clip-path="url(#clipPath250)"
         id="g246"><path
           id="path252"
           style="fill:#ffc000;fill-opacity:1;fill-rule:evenodd;stroke:none"
           d="m 43.591,123.4 c -1.696,8.77 4.151,17.27 13.06,19 8.908,1.72 17.504,-3.99 19.2,-12.76 1.696,-8.76 -4.151,-17.27 -13.06,-18.99 -8.908,-1.72 -17.504,3.99 -19.2,12.75 z"
           inkscape:connector-curvature="0" /></g></g><g
       id="g254"><g
         clip-path="url(#clipPath260)"
         id="g256"><path
           id="path262"
           style="fill:none;stroke:#000000;stroke-width:2.25;stroke-linecap:butt;stroke-linejoin:miter;stroke-miterlimit:10;stroke-dasharray:none;stroke-opacity:1"
           d="m 43.591,123.4 c -1.696,8.77 4.151,17.27 13.06,19 8.908,1.72 17.504,-3.99 19.2,-12.76 1.696,-8.76 -4.151,-17.27 -13.06,-18.99 -8.908,-1.72 -17.504,3.99 -19.2,12.75 z"
           inkscape:connector-curvature="0" /></g></g><g
       id="g264"><g
         clip-path="url(#clipPath270)"
         id="g266"><text
   id="text274"
   style="font-variant:normal;font-weight:bold;font-size:32.06399918px;font-family:TrebuchetMS;-inkscape-font-specification:TrebuchetMS-Bold;writing-mode:lr-tb;fill:#000000;fill-opacity:1;fill-rule:nonzero;stroke:none"
   transform="matrix(1,0,0,-1,50.328,115.78)"><tspan
     id="tspan272"
     y="0"
     x="0">R</tspan></text>

</g></g><g
       id="g276"><g
         clip-path="url(#clipPath282)"
         id="g278"><path
           id="path284"
           style="fill:#00b0f0;fill-opacity:1;fill-rule:evenodd;stroke:none"
           d="m 127.99,113.09 c -7.89,4.99 -10.05,15.73 -4.82,23.99 5.22,8.26 15.85,10.91 23.74,5.92 7.89,-4.99 10.05,-15.73 4.82,-23.99 -5.22,-8.26 -15.85,-10.91 -23.74,-5.92 z"
           inkscape:connector-curvature="0" /></g></g><g
       id="g286"><g
         clip-path="url(#clipPath292)"
         id="g288"><path
           id="path294"
           style="fill:none;stroke:#000000;stroke-width:2.25;stroke-linecap:butt;stroke-linejoin:miter;stroke-miterlimit:10;stroke-dasharray:none;stroke-opacity:1"
           d="m 127.99,113.09 c -7.89,4.99 -10.05,15.73 -4.82,23.99 5.22,8.26 15.85,10.91 23.74,5.92 7.89,-4.99 10.05,-15.73 4.82,-23.99 -5.22,-8.26 -15.85,-10.91 -23.74,-5.92 z"
           inkscape:connector-curvature="0" /></g></g><g
       id="g296"><g
         clip-path="url(#clipPath302)"
         id="g298"><text
   id="text306"
   style="font-variant:normal;font-weight:bold;font-size:32.06399918px;font-family:TrebuchetMS;-inkscape-font-specification:TrebuchetMS-Bold;writing-mode:lr-tb;fill:#000000;fill-opacity:1;fill-rule:nonzero;stroke:none"
   transform="matrix(1,0,0,-1,129.84,117.19)"><tspan
     id="tspan304"
     y="0"
     x="0">S</tspan></text>

</g></g><g
       id="g308"><g
         clip-path="url(#clipPath314)"
         id="g310"><path
           id="path316"
           style="fill:#ffc000;fill-opacity:1;fill-rule:evenodd;stroke:none"
           d="m 142.34,68.35 c -2.31,1.465 -3,4.529 -1.54,6.844 1.47,2.316 4.53,3.005 6.85,1.541 2.31,-1.465 3,-4.529 1.54,-6.844 -1.47,-2.316 -4.53,-3.005 -6.85,-1.541 z"
           inkscape:connector-curvature="0" /></g></g><g
       id="g318"><g
         clip-path="url(#clipPath324)"
         id="g320"><path
           id="path326"
           style="fill:none;stroke:#000000;stroke-width:2.25;stroke-linecap:butt;stroke-linejoin:miter;stroke-miterlimit:10;stroke-dasharray:none;stroke-opacity:1"
           d="m 142.34,68.35 c -2.31,1.465 -3,4.529 -1.54,6.844 1.47,2.316 4.53,3.005 6.85,1.541 2.31,-1.465 3,-4.529 1.54,-6.844 -1.47,-2.316 -4.53,-3.005 -6.85,-1.541 z"
           inkscape:connector-curvature="0" /></g></g><g
       id="g328"><g
         clip-path="url(#clipPath334)"
         id="g330"><path
           id="path336"
           style="fill:#92d050;fill-opacity:1;fill-rule:evenodd;stroke:none"
           d="m 95.42,131.48 c -6.083,3.85 -7.865,11.95 -3.98,18.09 3.885,6.14 11.97,8 18.05,4.16 6.08,-3.85 7.86,-11.95 3.98,-18.09 -3.89,-6.15 -11.97,-8 -18.05,-4.16 z"
           inkscape:connector-curvature="0" /></g></g><g
       id="g338"><g
         clip-path="url(#clipPath344)"
         id="g340"><path
           id="path346"
           style="fill:none;stroke:#000000;stroke-width:2.25;stroke-linecap:butt;stroke-linejoin:miter;stroke-miterlimit:10;stroke-dasharray:none;stroke-opacity:1"
           d="m 95.42,131.48 c -6.083,3.85 -7.865,11.95 -3.98,18.09 3.885,6.14 11.97,8 18.05,4.16 6.08,-3.85 7.86,-11.95 3.98,-18.09 -3.89,-6.15 -11.97,-8 -18.05,-4.16 z"
           inkscape:connector-curvature="0" /></g></g><g
       id="g348"><g
         clip-path="url(#clipPath354)"
         id="g350"><text
   id="text358"
   style="font-variant:normal;font-weight:bold;font-size:24px;font-family:TrebuchetMS;-inkscape-font-specification:TrebuchetMS-Bold;writing-mode:lr-tb;fill:#000000;fill-opacity:1;fill-rule:nonzero;stroke:none"
   transform="matrix(1,0,0,-1,94.752,134.06)"><tspan
     id="tspan356"
     y="0"
     x="0">E</tspan></text>

</g></g><g
       id="g360"><g
         clip-path="url(#clipPath366)"
         id="g362"><text
   id="text370"
   style="font-variant:normal;font-weight:bold;font-size:32.06399918px;font-family:TrebuchetMS;-inkscape-font-specification:TrebuchetMS-Bold;writing-mode:lr-tb;fill:#2e75b6;fill-opacity:1;fill-rule:nonzero;stroke:none"
   transform="matrix(1,0,0,-1,231.34,138.5)"><tspan
     id="tspan368"
     y="0"
     x="0 19.591105 36.681217 50.372543">Rare</tspan></text>

</g></g><g
       id="g372"><g
         clip-path="url(#clipPath378)"
         id="g374"><text
   id="text382"
   style="font-variant:normal;font-weight:bold;font-size:32.06399918px;font-family:TrebuchetMS;-inkscape-font-specification:TrebuchetMS-Bold;writing-mode:lr-tb;fill:#2e75b6;fill-opacity:1;fill-rule:nonzero;stroke:none"
   transform="matrix(1,0,0,-1,309.48,138.5)"><tspan
     id="tspan380"
     y="0"
     x="0 18.244415 35.142143 53.578945 72.496704">Event</tspan></text>

</g></g><g
       id="g384"><g
         clip-path="url(#clipPath390)"
         id="g386"><text
   id="text394"
   style="font-variant:normal;font-weight:bold;font-size:32.04000092px;font-family:TrebuchetMS;-inkscape-font-specification:TrebuchetMS-Bold;writing-mode:lr-tb;fill:#2e75b6;fill-opacity:1;fill-rule:nonzero;stroke:none"
   transform="matrix(1,0,0,-1,231.34,100.08)"><tspan
     id="tspan392"
     y="0"
     x="0 16.37244 34.667278 51.744598 65.425682 81.830162 100.82988 119.15676">Searches</tspan></text>

</g></g><g
       id="g396"><g
         clip-path="url(#clipPath402)"
         id="g398"><text
   id="text406"
   style="font-variant:normal;font-weight:bold;font-size:32.04000092px;font-family:TrebuchetMS;-inkscape-font-specification:TrebuchetMS-Bold;writing-mode:lr-tb;fill:#2e75b6;fill-opacity:1;fill-rule:nonzero;stroke:none"
   transform="matrix(1,0,0,-1,373.34,100.08)"><tspan
     id="tspan404"
     y="0"
     x="0 15.47532 33.609959 51.744598 61.1964 78.754318 88.302238">Toolkit</tspan></text>

</g></g><g
       id="g408"><g
         clip-path="url(#clipPath414)"
         id="g410"><text
   id="text418"
   style="font-variant:normal;font-weight:bold;font-size:32.04000092px;font-family:TrebuchetMS;-inkscape-font-specification:TrebuchetMS-Bold;writing-mode:lr-tb;fill:#000000;fill-opacity:1;fill-rule:nonzero;stroke:none"
   transform="matrix(1,0,0,-1,231.34,61.656)"><tspan
     id="tspan416"
     y="0"
     x="0 13.80924 31.94388 43.798679 56.486519 81.605881 98.683197 112.36428">software</tspan></text>

</g></g></g></svg>